<?xml version="1.0" encoding="utf-8"?>
<!-- Generator: Adobe Illustrator 21.1.0, SVG Export Plug-In . SVG Version: 6.00 Build 0)  -->
<svg version="1.1" id="Layer_1" xmlns="http://www.w3.org/2000/svg" xmlns:xlink="http://www.w3.org/1999/xlink" x="0px" y="0px"
	 viewBox="0 0 58.8 50" style="enable-background:new 0 0 58.8 50;" xml:space="preserve">
<style type="text/css">
	.st0{fill:#FFFFFF;}
	.st1{fill:#009999;}
</style>
<rect class="st0" width="58.8" height="50"/>
<path class="st1" d="M22,31.5c0,0.8,0.7,1.5,1.5,1.5h11c0.8,0,1.5-0.7,1.5-1.5V23H22V31.5z M32,25.4c0-0.2,0.2-0.4,0.4-0.4h1.2
	c0.2,0,0.4,0.2,0.4,0.4v1.2c0,0.2-0.2,0.4-0.4,0.4h-1.2c-0.2,0-0.4-0.2-0.4-0.4V25.4z M32,29.4c0-0.2,0.2-0.4,0.4-0.4h1.2
	c0.2,0,0.4,0.2,0.4,0.4v1.2c0,0.2-0.2,0.4-0.4,0.4h-1.2c-0.2,0-0.4-0.2-0.4-0.4V29.4z M28,25.4c0-0.2,0.2-0.4,0.4-0.4h1.2
	c0.2,0,0.4,0.2,0.4,0.4v1.2c0,0.2-0.2,0.4-0.4,0.4h-1.2c-0.2,0-0.4-0.2-0.4-0.4V25.4z M28,29.4c0-0.2,0.2-0.4,0.4-0.4h1.2
	c0.2,0,0.4,0.2,0.4,0.4v1.2c0,0.2-0.2,0.4-0.4,0.4h-1.2c-0.2,0-0.4-0.2-0.4-0.4V29.4z M24,25.4c0-0.2,0.2-0.4,0.4-0.4h1.2
	c0.2,0,0.4,0.2,0.4,0.4v1.2c0,0.2-0.2,0.4-0.4,0.4h-1.2c-0.2,0-0.4-0.2-0.4-0.4V25.4z M24,29.4c0-0.2,0.2-0.4,0.4-0.4h1.2
	c0.2,0,0.4,0.2,0.4,0.4v1.2c0,0.2-0.2,0.4-0.4,0.4h-1.2c-0.2,0-0.4-0.2-0.4-0.4V29.4z M34.5,19H33v-1.5c0-0.3-0.2-0.5-0.5-0.5h-1
	c-0.3,0-0.5,0.2-0.5,0.5V19h-4v-1.5c0-0.3-0.2-0.5-0.5-0.5h-1c-0.3,0-0.5,0.2-0.5,0.5V19h-1.5c-0.8,0-1.5,0.7-1.5,1.5V22H36v-1.5
	C36,19.7,35.3,19,34.5,19z"/>
</svg>
