<?xml version="1.0" encoding="utf-8"?>
<!-- Generator: Adobe Illustrator 21.1.0, SVG Export Plug-In . SVG Version: 6.00 Build 0)  -->
<svg version="1.1" id="Layer_1" focusable="false" xmlns="http://www.w3.org/2000/svg" xmlns:xlink="http://www.w3.org/1999/xlink"
	 x="0px" y="0px" viewBox="0 0 448 512" style="enable-background:new 0 0 448 512;" xml:space="preserve">
<style type="text/css">
	.st0{fill:#FFFFFF;}
</style>
<path class="st0" d="M418.5,9.3h-390c-8.8,0-15.9,7.1-15.9,15.9v29.9c0,8.8,7.1,15.9,15.9,15.9h187.9c-3.2,1.1-6.3,2.9-8.9,5.5
	L19.9,264.4c-9.1,9-9.1,23.7,0,32.7l21.4,21.4c9.2,9.3,24.2,9.1,33.1-0.4l110.9-116.4v277.6c0,12.8,10.3,23.2,23.2,23.2h30.9
	c12.8,0,23.2-10.3,23.2-23.2V201.8l110.8,116.3c9,9.4,24,9.6,33.1,0.4l21.4-21.4c9.1-9,9.1-23.7,0-32.7L240.3,76.6
	c-2.6-2.6-5.6-4.4-8.8-5.5h187c8.8,0,15.9-7.1,15.9-15.9V25.3C434.4,16.5,427.3,9.3,418.5,9.3z"/>
</svg>
